<?xml version="1.0" standalone="no"?>
<!DOCTYPE svg PUBLIC "-//W3C//DTD SVG 20010904//EN"
 "http://www.w3.org/TR/2001/REC-SVG-20010904/DTD/svg10.dtd">
<svg version="1.0" xmlns="http://www.w3.org/2000/svg"
 width="256.000000pt" height="256.000000pt" viewBox="0 0 256.000000 256.000000"
 preserveAspectRatio="xMidYMid meet">
<metadata>
Created by potrace 1.11, written by Peter Selinger 2001-2013
</metadata>
<g transform="translate(0.000000,256.000000) scale(0.100000,-0.100000)"
fill="#000000" stroke="none">
<path d="M1169 2456 c-2 -2 -31 -7 -64 -11 -32 -3 -62 -8 -65 -10 -4 -2 -21
-7 -39 -10 -92 -16 -257 -87 -363 -156 -267 -175 -448 -442 -514 -760 -19 -90
-25 -302 -11 -399 69 -488 446 -884 937 -986 91 -19 303 -25 399 -11 468 67
860 421 975 881 42 170 43 402 1 568 -64 256 -208 476 -427 653 -113 92 -287
173 -458 215 -77 19 -357 39 -371 26z"/>
</g>
</svg>
